<svg xmlns="http://www.w3.org/2000/svg" width="1024" height="1024" viewBox="0 0 1024 1024"><g transform="translate(-42.4 5.1) scale(1.056)"><clipPath id="d1"><path d="M 250 600 C 240 470 300 330 430 300 C 560 270 700 380 770 600 Z"/></clipPath><path d="M 250 600 C 240 470 300 330 430 300 C 560 270 700 380 770 600 Z" fill="#3E9B5F"/><g clip-path="url(#d1)"><path d="M 395 345 L 480 330 L 500 400 L 410 420 Z" fill="#9BD58F" stroke="#173D2C" stroke-width="12" stroke-linejoin="round"/><path d="M 520 330 L 600 360 L 590 430 L 515 415 Z" fill="#9BD58F" stroke="#173D2C" stroke-width="12" stroke-linejoin="round"/><path d="M 330 440 L 400 440 L 395 520 L 320 525 Z" fill="#9BD58F" stroke="#173D2C" stroke-width="12" stroke-linejoin="round"/><path d="M 425 445 L 545 440 L 550 530 L 430 540 Z" fill="#9BD58F" stroke="#173D2C" stroke-width="12" stroke-linejoin="round"/><path d="M 570 455 L 650 450 L 690 540 L 580 545 Z" fill="#9BD58F" stroke="#173D2C" stroke-width="12" stroke-linejoin="round"/><path d="M 630 380 L 680 410 L 700 460 L 640 440 Z" fill="#9BD58F" stroke="#173D2C" stroke-width="12" stroke-linejoin="round"/><path d="M 300 400 C 330 350 380 325 420 318" fill="none" stroke="#C9EFC0" stroke-width="18" stroke-linecap="round"/></g><path d="M 250 600 C 240 470 300 330 430 300 C 560 270 700 380 770 600 Z" fill="none" stroke="#173D2C" stroke-width="22" stroke-linejoin="round"/><path d="M 205 560 C 200 520 225 515 250 540 C 330 600 560 620 800 600 C 840 598 845 650 800 660 C 560 690 300 680 225 630 C 205 615 205 585 205 560 Z" fill="#E8D6A0" stroke="#173D2C" stroke-width="22" stroke-linejoin="round"/><path d="M 260 625 C 380 655 600 655 790 632" fill="none" stroke="#C9B270" stroke-width="12" stroke-linecap="round"/></g></svg>